<svg xmlns="http://www.w3.org/2000/svg" width="57" height="53" viewBox="0 0 57 53">
    <g fill="#5558DB" fill-rule="evenodd">
        <path d="M12.5 49.816c5.213 0 9.439-4.395 9.439-9.816 0-5.421-4.226-9.816-9.439-9.816S3.061 34.579 3.061 40c0 5.421 4.226 9.816 9.439 9.816zm0 3.184C19.404 53 25 47.18 25 40s-5.596-13-12.5-13S0 32.82 0 40s5.596 13 12.5 13z"/>
        <path fill-rule="nonzero" d="M3 47.786C5.368 44.866 8.968 43 13 43s7.632 1.865 10 4.786c-.672.83-1.443 1.574-2.295 2.214-1.784-2.318-4.572-3.809-7.705-3.809S7.079 47.682 5.295 50c-.852-.64-1.623-1.384-2.295-2.214z"/>
        <path d="M12.5 40.897c1.324 0 2.397-1.073 2.397-2.397 0-1.324-1.073-2.397-2.397-2.397-1.324 0-2.397 1.073-2.397 2.397 0 1.324 1.073 2.397 2.397 2.397zm0 2.103c2.485 0 4.5-2.014 4.5-4.5 0-2.485-2.015-4.5-4.5-4.5S8 36.015 8 38.5c0 2.486 2.015 4.5 4.5 4.5zM40.5 34.071c-2.998 0-5.429 2.43-5.429 5.429 0 2.998 2.43 5.428 5.429 5.428 2.998 0 5.429-2.43 5.429-5.428 0-2.998-2.43-5.429-5.43-5.429zm0-4.071c-5.247 0-9.5 4.253-9.5 9.5s4.253 9.5 9.5 9.5 9.5-4.253 9.5-9.5-4.253-9.5-9.5-9.5z"/>
        <path d="M24 38L35 38 35 42 24 42zM46 38L57 38 57 42 46 42zM40.5 4.071c-2.998 0-5.429 2.43-5.429 5.429 0 2.998 2.43 5.429 5.429 5.429 2.998 0 5.429-2.43 5.429-5.429 0-2.998-2.43-5.429-5.43-5.429zM40.5 0C35.253 0 31 4.253 31 9.5s4.253 9.5 9.5 9.5S50 14.747 50 9.5 45.747 0 40.5 0z"/>
        <path d="M24 8L35 8 35 12 24 12zM46 8L57 8 57 12 46 12zM39 19.167V18h5v1.167h-5zm0 4.666V21.5h5v2.333h-5zm0 4.667v-2.333h5V28.5h-5zm0 3.5v-1.167h5V32h-5z"/>
    </g>
</svg>
